<svg width="31" height="27" viewBox="0 0 31 27" fill="none" xmlns="http://www.w3.org/2000/svg"><path d="M23 9L16 2L9 9" stroke="#1D1B1A" stroke-width="1.5" stroke-linecap="square"/><path d="M3.8877 16.7217V23.5H2.60938V16.7217H0.52002V15.6367H5.96631V16.7217H3.8877ZM13.2764 19.5845C13.2764 19.187 13.203 18.8092 13.0562 18.4512C12.9129 18.0931 12.7052 17.7744 12.4331 17.4951C12.1681 17.2194 11.8602 17.0081 11.5093 16.8613C11.1619 16.7109 10.7949 16.6357 10.4082 16.6357C10.0215 16.6357 9.65267 16.7091 9.30176 16.856C8.95443 17.0028 8.64469 17.2158 8.37256 17.4951C8.10042 17.7708 7.89274 18.0877 7.74951 18.4458C7.60628 18.8039 7.53467 19.1834 7.53467 19.5845C7.53467 19.9819 7.60628 20.3579 7.74951 20.7124C7.89274 21.0669 8.10042 21.3838 8.37256 21.6631C8.64469 21.9424 8.95443 22.1554 9.30176 22.3022C9.64909 22.4491 10.0179 22.5225 10.4082 22.5225C10.7913 22.5225 11.1548 22.4491 11.4985 22.3022C11.8459 22.1554 12.1574 21.9424 12.4331 21.6631C12.7052 21.3838 12.9129 21.0669 13.0562 20.7124C13.203 20.3543 13.2764 19.9784 13.2764 19.5845ZM14.6084 19.5845C14.6084 20.1431 14.5028 20.6712 14.2915 21.1689C14.0838 21.6667 13.7795 22.1107 13.3784 22.501C12.9738 22.8913 12.5173 23.1903 12.0088 23.3979C11.5003 23.6056 10.9668 23.7095 10.4082 23.7095C9.84245 23.7095 9.30176 23.6056 8.78613 23.3979C8.27409 23.1867 7.82113 22.8877 7.42725 22.501C7.0262 22.1107 6.72184 21.6685 6.51416 21.1743C6.30648 20.6802 6.20264 20.1502 6.20264 19.5845C6.20264 19.0223 6.30648 18.4924 6.51416 17.9946C6.72184 17.4969 7.0262 17.0511 7.42725 16.6572C7.82829 16.2669 8.28304 15.9697 8.7915 15.7656C9.29997 15.5615 9.83887 15.4595 10.4082 15.4595C10.974 15.4595 11.5093 15.5615 12.0142 15.7656C12.5226 15.9697 12.9774 16.2669 13.3784 16.6572C13.7795 17.0547 14.0838 17.5041 14.2915 18.0054C14.5028 18.5031 14.6084 19.0295 14.6084 19.5845ZM17.353 18.9238H17.6807C18.3896 18.9238 18.8623 18.8468 19.0986 18.6929C19.335 18.5389 19.4531 18.2668 19.4531 17.8765C19.4531 17.4575 19.326 17.1621 19.0718 16.9902C18.8211 16.8184 18.3574 16.7324 17.6807 16.7324H17.353V18.9238ZM17.2725 19.9712V23.5H16.0747V15.6367H18.0083C18.5812 15.6367 19.002 15.6689 19.2705 15.7334C19.5426 15.7943 19.779 15.8963 19.9795 16.0396C20.2266 16.2222 20.4199 16.4692 20.5596 16.7808C20.6992 17.0887 20.769 17.4289 20.769 17.8013C20.769 18.1737 20.6992 18.5174 20.5596 18.8325C20.4199 19.1476 20.2266 19.3947 19.9795 19.5737C19.779 19.717 19.5426 19.819 19.2705 19.8799C19.002 19.9408 18.5812 19.9712 18.0083 19.9712H17.7559H17.2725ZM28.6592 19.5845C28.6592 19.187 28.5858 18.8092 28.439 18.4512C28.2957 18.0931 28.0881 17.7744 27.8159 17.4951C27.5509 17.2194 27.243 17.0081 26.8921 16.8613C26.5448 16.7109 26.1777 16.6357 25.791 16.6357C25.4043 16.6357 25.0355 16.7091 24.6846 16.856C24.3372 17.0028 24.0275 17.2158 23.7554 17.4951C23.4832 17.7708 23.2756 18.0877 23.1323 18.4458C22.9891 18.8039 22.9175 19.1834 22.9175 19.5845C22.9175 19.9819 22.9891 20.3579 23.1323 20.7124C23.2756 21.0669 23.4832 21.3838 23.7554 21.6631C24.0275 21.9424 24.3372 22.1554 24.6846 22.3022C25.0319 22.4491 25.4007 22.5225 25.791 22.5225C26.1742 22.5225 26.5376 22.4491 26.8813 22.3022C27.2287 22.1554 27.5402 21.9424 27.8159 21.6631C28.0881 21.3838 28.2957 21.0669 28.439 20.7124C28.5858 20.3543 28.6592 19.9784 28.6592 19.5845ZM29.9912 19.5845C29.9912 20.1431 29.8856 20.6712 29.6743 21.1689C29.4666 21.6667 29.1623 22.1107 28.7612 22.501C28.3566 22.8913 27.9001 23.1903 27.3916 23.3979C26.8831 23.6056 26.3496 23.7095 25.791 23.7095C25.2253 23.7095 24.6846 23.6056 24.1689 23.3979C23.6569 23.1867 23.2039 22.8877 22.8101 22.501C22.409 22.1107 22.1047 21.6685 21.897 21.1743C21.6893 20.6802 21.5854 20.1502 21.5854 19.5845C21.5854 19.0223 21.6893 18.4924 21.897 17.9946C22.1047 17.4969 22.409 17.0511 22.8101 16.6572C23.2111 16.2669 23.6659 15.9697 24.1743 15.7656C24.6828 15.5615 25.2217 15.4595 25.791 15.4595C26.3568 15.4595 26.8921 15.5615 27.397 15.7656C27.9054 15.9697 28.3602 16.2669 28.7612 16.6572C29.1623 17.0547 29.4666 17.5041 29.6743 18.0054C29.8856 18.5031 29.9912 19.0295 29.9912 19.5845Z" fill="#1D1B1A"/></svg>